<svg width="55" height="37" viewBox="0 0 55 37" fill="none" xmlns="http://www.w3.org/2000/svg">
<path d="M0 28.5C0 26.567 1.567 25 3.5 25C5.433 25 7 26.567 7 28.5V37H0V28.5Z" fill="#52A2FF"/>
<path d="M12 20.5C12 18.567 13.567 17 15.5 17C17.433 17 19 18.567 19 20.5V37H12V20.5Z" fill="#52A2FF"/>
<path d="M24 3.5C24 1.567 25.567 0 27.5 0C29.433 0 31 1.567 31 3.5V37H24V3.5Z" fill="#52A2FF"/>
<path d="M36 9.5C36 7.567 37.567 6 39.5 6C41.433 6 43 7.567 43 9.5V37H36V9.5Z" fill="#52A2FF"/>
<path d="M48 26.5C48 24.567 49.567 23 51.5 23C53.433 23 55 24.567 55 26.5V37H48V26.5Z" fill="#52A2FF"/>
</svg>
