<svg width="55" height="37" viewBox="0 0 55 37" fill="none" xmlns="http://www.w3.org/2000/svg">
<path d="M0 17.5C0 15.567 1.567 14 3.5 14C5.433 14 7 15.567 7 17.5V37H0V17.5Z" fill="#CA9B64"/>
<path d="M12 3.5C12 1.567 13.567 0 15.5 0C17.433 0 19 1.567 19 3.5V37H12V3.5Z" fill="#CA9B64"/>
<path d="M24 17.5C24 15.567 25.567 14 27.5 14C29.433 14 31 15.567 31 17.5V37H24V17.5Z" fill="#CA9B64"/>
<path d="M36 9.5C36 7.567 37.567 6 39.5 6C41.433 6 43 7.567 43 9.5V37H36V9.5Z" fill="#CA9B64"/>
<path d="M48 26.5C48 24.567 49.567 23 51.5 23C53.433 23 55 24.567 55 26.5V37H48V26.5Z" fill="#CA9B64"/>
</svg>
