<svg width="170" height="39" viewBox="0 0 170 39" fill="none" xmlns="http://www.w3.org/2000/svg">
<path d="M16.4992 2H37.5808L22.0816 24.9729H1L16.4992 2Z" fill="#CA9B64"/>
<path opacity="0.5" d="M17.4224 27.1022L11.4192 36.0002H33.5008L49 13.0273H32.7024L23.2064 27.1022H17.4224Z" fill="#CA9B64"/>
<path d="M66.242 13.436H68.762V24.002H72.902V26H66.242V13.436ZM84.1337 21.014C84.1337 24.146 81.8297 26.162 78.9317 26.162C76.0517 26.162 73.8737 24.146 73.8737 21.014C73.8737 17.864 76.1237 15.866 79.0037 15.866C81.8837 15.866 84.1337 17.864 84.1337 21.014ZM76.4297 21.014C76.4297 22.994 77.5817 23.966 78.9317 23.966C80.2637 23.966 81.5417 22.994 81.5417 21.014C81.5417 19.016 80.2997 18.062 78.9677 18.062C77.6357 18.062 76.4297 19.016 76.4297 21.014ZM85.3342 20.978C85.3342 17.864 87.3502 15.866 89.8882 15.866C91.4542 15.866 92.5882 16.586 93.1822 17.45V16.028H95.7202V26.072C95.7202 28.772 94.0642 30.914 90.7882 30.914C87.9802 30.914 86.0182 29.51 85.7662 27.224H88.2682C88.5202 28.124 89.4562 28.718 90.7162 28.718C92.1022 28.718 93.1822 27.926 93.1822 26.072V24.524C92.5882 25.388 91.4542 26.162 89.8882 26.162C87.3502 26.162 85.3342 24.092 85.3342 20.978ZM93.1822 21.014C93.1822 19.124 91.9222 18.08 90.5362 18.08C89.1862 18.08 87.9082 19.088 87.9082 20.978C87.9082 22.868 89.1862 23.948 90.5362 23.948C91.9222 23.948 93.1822 22.904 93.1822 21.014ZM107.811 21.014C107.811 24.146 105.507 26.162 102.609 26.162C99.7295 26.162 97.5515 24.146 97.5515 21.014C97.5515 17.864 99.8015 15.866 102.681 15.866C105.561 15.866 107.811 17.864 107.811 21.014ZM100.107 21.014C100.107 22.994 101.259 23.966 102.609 23.966C103.941 23.966 105.219 22.994 105.219 21.014C105.219 19.016 103.977 18.062 102.645 18.062C101.313 18.062 100.107 19.016 100.107 21.014ZM109.66 26V16.028H112.18V26H109.66ZM110.938 14.84C110.038 14.84 109.39 14.192 109.39 13.364C109.39 12.536 110.038 11.888 110.938 11.888C111.82 11.888 112.486 12.536 112.486 13.364C112.486 14.192 111.82 14.84 110.938 14.84ZM117.19 17.468C117.784 16.622 118.936 15.866 120.484 15.866C123.04 15.866 125.038 17.864 125.038 20.978C125.038 24.092 123.04 26.162 120.484 26.162C118.918 26.162 117.802 25.388 117.19 24.578V30.752H114.67V16.028H117.19V17.468ZM122.464 20.978C122.464 19.088 121.186 18.08 119.818 18.08C118.468 18.08 117.19 19.124 117.19 21.014C117.19 22.904 118.468 23.948 119.818 23.948C121.186 23.948 122.464 22.868 122.464 20.978ZM135.653 22.364C135.653 24.344 134.069 26.126 131.207 26.126C128.597 26.126 126.581 24.758 126.545 22.382H129.245C129.317 23.39 129.983 24.056 131.153 24.056C132.341 24.056 133.043 23.426 133.043 22.526C133.043 19.808 126.563 21.446 126.581 16.892C126.581 14.624 128.417 13.256 131.009 13.256C133.583 13.256 135.347 14.57 135.509 16.838H132.737C132.683 16.01 132.017 15.362 130.937 15.344C129.947 15.308 129.209 15.794 129.209 16.82C129.209 19.34 135.653 17.936 135.653 22.364Z" fill="#CA9B64"/>
</svg>
