<svg width="55" height="30" viewBox="0 0 55 30" fill="none" xmlns="http://www.w3.org/2000/svg">
<path d="M0 19.5C0 17.567 1.567 16 3.5 16C5.433 16 7 17.567 7 19.5V30H0V19.5Z" fill="#FFC226"/>
<path d="M12 25.5C12 23.567 13.567 22 15.5 22C17.433 22 19 23.567 19 25.5V30H12V25.5Z" fill="#FFC226"/>
<path d="M24 15.5C24 13.567 25.567 12 27.5 12C29.433 12 31 13.567 31 15.5V30H24V15.5Z" fill="#FFC226"/>
<path d="M36 12.5C36 10.567 37.567 9 39.5 9C41.433 9 43 10.567 43 12.5V30H36V12.5Z" fill="#FFC226"/>
<path d="M48 3.5C48 1.567 49.567 0 51.5 0C53.433 0 55 1.567 55 3.5V30H48V3.5Z" fill="#FFC226"/>
</svg>
